<svg clip-rule="evenodd" fill-rule="evenodd" stroke-linecap="round" stroke-linejoin="round" stroke-miterlimit="1.5" viewBox="0 0 800 800" xmlns="http://www.w3.org/2000/svg"><path d="m780 96c0-41.946-34.054-76-76-76h-608c-41.946 0-76 34.054-76 76v608c0 41.946 34.054 76 76 76h608c41.946 0 76-34.054 76-76z" fill="none" stroke="#00305c" stroke-width="40"/><g fill="#00305c" fill-rule="nonzero"><path d="m315.784 83.478c31.938 0 56.746 4.42 74.426 13.259 17.679 8.84 26.519 21.245 26.519 37.213 0 13.117-4.42 23.383-13.26 30.797-8.839 7.414-18.962 11.121-30.369 11.121-13.687 0-23.668-3.137-29.941-9.41s-11.976-15.398-17.109-27.375c-5.133-11.976-10.551-20.959-16.254-26.947s-14.828-8.983-27.375-8.983c-26.234 0-46.908 18.25-62.021 54.75s-22.67 93.531-22.67 171.093v52.184c17.68-.571 49.047-3.137 94.101-7.699 1.711 0 3.137 2.138 4.277 6.416 1.141 4.277 1.711 8.982 1.711 14.115 0 5.703-.998 11.263-2.994 16.681s-3.849 7.842-5.56 7.272c-27.375-6.844-57.887-11.121-91.535-12.832v230.12c0 17.68 1.711 30.512 5.133 38.496s10.408 13.402 20.959 16.254c10.55 2.851 27.232 4.277 50.044 4.277 2.282 0 3.422 1.711 3.422 5.133s-1.14 5.133-3.422 5.133l-59.027-.856c-13.117-.57-32.507-.855-58.171-.855l-52.184.855c-9.125.571-21.957.856-38.496.856-2.281 0-3.422-1.711-3.422-5.133s1.141-5.133 3.422-5.133c14.828 0 25.807-1.426 32.936-4.277 7.129-2.852 11.976-8.412 14.543-16.682 2.566-8.269 3.849-20.959 3.849-38.068v-192.48c0-17.679-3.707-29.228-11.121-34.646s-21.957-8.127-43.629-8.127c-1.711 0-2.566-2.566-2.566-7.699s.855-7.699 2.566-7.699c19.961 0 33.649-2.709 41.063-8.127s11.406-15.256 11.976-29.514c2.852-92.96 20.531-160.114 53.039-201.462 32.508-41.347 81.554-62.021 147.14-62.021z"/><path d="m734.107 648.94c1.711 0 3.279 1.426 4.705 4.278 1.426 2.851 1.568 4.562.428 5.133l-118.055 57.316-4.277.855c-5.133 0-9.838-5.418-14.115-16.254s-6.986-25.664-8.127-44.484c-42.203 39.922-85.261 59.883-129.175 59.883-25.094 0-47.764-6.559-68.01-19.676s-36.357-32.365-48.334-57.744c-11.976-25.379-17.964-55.177-17.964-89.396 0-43.344 10.123-78.845 30.369-106.505 20.246-27.661 45.339-47.764 75.281-60.311 29.941-12.547 60.025-18.82 90.251-18.82 21.102 0 43.344 3.422 66.726 10.266v-172.804c0-19.961-1.853-34.219-5.56-42.774-3.707-8.554-10.123-12.832-19.248-12.832-7.414 0-17.965 3.137-31.652 9.41h-.856c-2.281 0-4.134-1.568-5.56-4.705-1.426-3.136-1.569-4.99-.428-5.56l125.753-59.027 3.422-.856c2.852 0 5.989 1.283 9.41 3.85 3.422 2.566 5.133 4.99 5.133 7.271v509.858c0 19.39 1.854 33.078 5.561 41.062s9.838 11.977 18.392 11.977c7.414 0 19.106-3.137 35.074-9.411zm-221.566 25.664c28.516 0 55.605-11.976 81.269-35.929v-212.156c-10.265-14.257-21.814-24.665-34.646-31.224s-27.803-9.838-44.912-9.838c-30.797 0-54.322 10.693-70.576 32.08s-24.381 56.033-24.381 103.939 8.555 85.404 25.664 112.494c17.11 27.09 39.637 40.634 67.582 40.634z"/></g></svg>